<mxfile host="Electron" modified="2024-02-04T12:29:51.202Z" agent="Mozilla/5.0 (Windows NT 10.0; Win64; x64) AppleWebKit/537.36 (KHTML, like Gecko) draw.io/23.0.2 Chrome/120.0.6099.109 Electron/28.1.0 Safari/537.36" etag="uLTaO1_K9ZlFXMizXd_u" version="23.0.2" type="device">
  <diagram name="Page-1" id="bg9rUlCjLrsfBAhtoOo_">
    <mxGraphModel dx="1621" dy="511" grid="1" gridSize="10" guides="1" tooltips="1" connect="1" arrows="1" fold="1" page="1" pageScale="1" pageWidth="827" pageHeight="1169" math="0" shadow="0">
      <root>
        <mxCell id="0" />
        <mxCell id="1" parent="0" />
        <UserObject label="Publisher" type="externalEntity" source="" flow="" placeholders="1" id="lgQCPEnMADlqQ2WFE7rN-1">
          <mxCell style="shape=rectangle;whiteSpace=wrap;html=1;fillColor=#ffffff;strokeColor=#000000;align=center;verticalAlign=middle;fontColor=#232F3E;" vertex="1" parent="1">
            <mxGeometry x="220" width="75" height="35" as="geometry" />
          </mxCell>
        </UserObject>
        <UserObject label="Consumer" type="externalEntity" source="" flow="" placeholders="1" id="lgQCPEnMADlqQ2WFE7rN-2">
          <mxCell style="shape=rectangle;whiteSpace=wrap;html=1;fillColor=#ffffff;strokeColor=#000000;align=center;verticalAlign=middle;fontColor=#232F3E;" vertex="1" parent="1">
            <mxGeometry x="695" width="85" height="35" as="geometry" />
          </mxCell>
        </UserObject>
        <UserObject label="Publish Private Dataset" type="process" source="1" flow="Private Dataset Access" placeholders="1" id="lgQCPEnMADlqQ2WFE7rN-3">
          <mxCell style="shape=ellipse;perimeter=ellipsePerimeter;whiteSpace=wrap;html=1;fillColor=#ffffff;strokeColor=#000000;align=center;verticalAlign=middle;fontColor=#232F3E;" vertex="1" parent="1">
            <mxGeometry y="135" width="155" height="35" as="geometry" />
          </mxCell>
        </UserObject>
        <UserObject label="Private Dataset Repository" type="dataStore" source="3" flow="Private Dataset Access" placeholders="1" id="lgQCPEnMADlqQ2WFE7rN-4">
          <mxCell style="html=1;dashed=0;whiteSpace=wrap;shape=partialRectangle;right=0;left=0;" vertex="1" parent="1">
            <mxGeometry x="-10" y="270" width="175" height="35" as="geometry" />
          </mxCell>
        </UserObject>
        <UserObject label="Browse Public Datasets" type="process" source="2" flow="Dataset Information" placeholders="1" id="lgQCPEnMADlqQ2WFE7rN-5">
          <mxCell style="shape=ellipse;perimeter=ellipsePerimeter;whiteSpace=wrap;html=1;fillColor=#ffffff;strokeColor=#000000;align=center;verticalAlign=middle;fontColor=#232F3E;" vertex="1" parent="1">
            <mxGeometry x="570" y="135" width="155" height="35" as="geometry" />
          </mxCell>
        </UserObject>
        <UserObject label="Public Dataset Registry" type="dataStore" source="5" flow="Dataset Information" placeholders="1" id="lgQCPEnMADlqQ2WFE7rN-6">
          <mxCell style="html=1;dashed=0;whiteSpace=wrap;shape=partialRectangle;right=0;left=0;" vertex="1" parent="1">
            <mxGeometry x="570" y="270" width="155" height="35" as="geometry" />
          </mxCell>
        </UserObject>
        <UserObject label="Update Data Package" type="process" source="1" flow="Data Package Updates" placeholders="1" id="lgQCPEnMADlqQ2WFE7rN-7">
          <mxCell style="shape=ellipse;perimeter=ellipsePerimeter;whiteSpace=wrap;html=1;fillColor=#ffffff;strokeColor=#000000;align=center;verticalAlign=middle;fontColor=#232F3E;" vertex="1" parent="1">
            <mxGeometry x="185" y="135" width="145" height="35" as="geometry" />
          </mxCell>
        </UserObject>
        <UserObject label="Validate Data Package" type="process" source="2" flow="Validation Confirmation" placeholders="1" id="lgQCPEnMADlqQ2WFE7rN-8">
          <mxCell style="shape=ellipse;perimeter=ellipsePerimeter;whiteSpace=wrap;html=1;fillColor=#ffffff;strokeColor=#000000;align=center;verticalAlign=middle;fontColor=#232F3E;" vertex="1" parent="1">
            <mxGeometry x="755" y="135" width="145" height="35" as="geometry" />
          </mxCell>
        </UserObject>
        <UserObject label="Version Data Package" type="process" source="1" flow="Version Information" placeholders="1" id="lgQCPEnMADlqQ2WFE7rN-9">
          <mxCell style="shape=ellipse;perimeter=ellipsePerimeter;whiteSpace=wrap;html=1;fillColor=#ffffff;strokeColor=#000000;align=center;verticalAlign=middle;fontColor=#232F3E;" vertex="1" parent="1">
            <mxGeometry x="360" y="135" width="145" height="35" as="geometry" />
          </mxCell>
        </UserObject>
        <UserObject label="Data Package Versions" type="dataStore" source="9" flow="Version Information" placeholders="1" id="lgQCPEnMADlqQ2WFE7rN-10">
          <mxCell style="html=1;dashed=0;whiteSpace=wrap;shape=partialRectangle;right=0;left=0;" vertex="1" parent="1">
            <mxGeometry x="355" y="270" width="155" height="35" as="geometry" />
          </mxCell>
        </UserObject>
        <mxCell id="lgQCPEnMADlqQ2WFE7rN-11" value="Private Dataset Access" style="endArrow=blockThin;endFill=1;fontSize=11;orthogonal=1;noEdgeStyle=1;" edge="1" parent="1" source="lgQCPEnMADlqQ2WFE7rN-1" target="lgQCPEnMADlqQ2WFE7rN-3">
          <mxGeometry relative="1" as="geometry">
            <Array as="points">
              <mxPoint x="235.83333333333334" y="47" />
              <mxPoint x="77.5" y="123" />
            </Array>
          </mxGeometry>
        </mxCell>
        <mxCell id="lgQCPEnMADlqQ2WFE7rN-12" value="Private Dataset Access" style="endArrow=blockThin;endFill=1;fontSize=11;orthogonal=1;noEdgeStyle=1;" edge="1" parent="1" source="lgQCPEnMADlqQ2WFE7rN-3" target="lgQCPEnMADlqQ2WFE7rN-4">
          <mxGeometry relative="1" as="geometry">
            <Array as="points">
              <mxPoint x="77.5" y="182" />
              <mxPoint x="77.5" y="258" />
            </Array>
          </mxGeometry>
        </mxCell>
        <mxCell id="lgQCPEnMADlqQ2WFE7rN-13" value="Dataset Information" style="endArrow=blockThin;endFill=1;fontSize=11;orthogonal=1;noEdgeStyle=1;" edge="1" parent="1" source="lgQCPEnMADlqQ2WFE7rN-2" target="lgQCPEnMADlqQ2WFE7rN-5">
          <mxGeometry relative="1" as="geometry">
            <Array as="points">
              <mxPoint x="718.75" y="47" />
              <mxPoint x="647.5" y="123" />
            </Array>
          </mxGeometry>
        </mxCell>
        <mxCell id="lgQCPEnMADlqQ2WFE7rN-14" value="Dataset Information" style="endArrow=blockThin;endFill=1;fontSize=11;orthogonal=1;noEdgeStyle=1;" edge="1" parent="1" source="lgQCPEnMADlqQ2WFE7rN-5" target="lgQCPEnMADlqQ2WFE7rN-6">
          <mxGeometry relative="1" as="geometry">
            <Array as="points">
              <mxPoint x="647.5" y="182" />
              <mxPoint x="647.5" y="258" />
            </Array>
          </mxGeometry>
        </mxCell>
        <mxCell id="lgQCPEnMADlqQ2WFE7rN-15" value="Data Package Updates" style="endArrow=blockThin;endFill=1;fontSize=11;orthogonal=1;noEdgeStyle=1;" edge="1" parent="1" source="lgQCPEnMADlqQ2WFE7rN-1" target="lgQCPEnMADlqQ2WFE7rN-7">
          <mxGeometry relative="1" as="geometry">
            <Array as="points">
              <mxPoint x="257.5" y="49" />
              <mxPoint x="257.5" y="123" />
            </Array>
          </mxGeometry>
        </mxCell>
        <mxCell id="lgQCPEnMADlqQ2WFE7rN-16" value="Validation Confirmation" style="endArrow=blockThin;endFill=1;fontSize=11;orthogonal=1;noEdgeStyle=1;" edge="1" parent="1" source="lgQCPEnMADlqQ2WFE7rN-2" target="lgQCPEnMADlqQ2WFE7rN-8">
          <mxGeometry relative="1" as="geometry">
            <Array as="points">
              <mxPoint x="756.25" y="47" />
              <mxPoint x="827.5" y="123" />
            </Array>
          </mxGeometry>
        </mxCell>
        <mxCell id="lgQCPEnMADlqQ2WFE7rN-17" value="Version Information" style="endArrow=blockThin;endFill=1;fontSize=11;orthogonal=1;noEdgeStyle=1;" edge="1" parent="1" source="lgQCPEnMADlqQ2WFE7rN-1" target="lgQCPEnMADlqQ2WFE7rN-9">
          <mxGeometry relative="1" as="geometry">
            <Array as="points">
              <mxPoint x="279.1666666666667" y="47" />
              <mxPoint x="432.5" y="123" />
            </Array>
          </mxGeometry>
        </mxCell>
        <mxCell id="lgQCPEnMADlqQ2WFE7rN-18" value="Version Information" style="endArrow=blockThin;endFill=1;fontSize=11;orthogonal=1;noEdgeStyle=1;" edge="1" parent="1" source="lgQCPEnMADlqQ2WFE7rN-9" target="lgQCPEnMADlqQ2WFE7rN-10">
          <mxGeometry relative="1" as="geometry">
            <Array as="points">
              <mxPoint x="432.5" y="182" />
              <mxPoint x="432.5" y="258" />
            </Array>
          </mxGeometry>
        </mxCell>
      </root>
    </mxGraphModel>
  </diagram>
</mxfile>
